<mxfile host="app.diagrams.net" modified="2024-03-02T20:24:19.756Z" agent="Mozilla/5.0 (Macintosh; Intel Mac OS X 10_15_7) AppleWebKit/537.36 (KHTML, like Gecko) Chrome/122.0.0.0 Safari/537.36" etag="DimyTqg7_pTMdJiCVhX5" version="24.0.1" type="github" pages="2">
  <diagram id="nO8BPtUg-PpcbYlPE__E" name="Page-2">
    <mxGraphModel dx="2021" dy="1849" grid="1" gridSize="10" guides="1" tooltips="1" connect="1" arrows="1" fold="1" page="1" pageScale="1" pageWidth="827" pageHeight="1169" math="0" shadow="0">
      <root>
        <mxCell id="0" />
        <mxCell id="1" parent="0" />
        <mxCell id="j51JJCb9MVZ1a1OPQLJk-128" value="" style="rounded=0;whiteSpace=wrap;html=1;" parent="1" vertex="1">
          <mxGeometry x="-300" y="-10" width="1380" height="1130" as="geometry" />
        </mxCell>
        <mxCell id="j51JJCb9MVZ1a1OPQLJk-1" value="" style="rounded=0;whiteSpace=wrap;html=1;" parent="1" vertex="1">
          <mxGeometry x="-140" y="290" width="609.39" height="800" as="geometry" />
        </mxCell>
        <mxCell id="j51JJCb9MVZ1a1OPQLJk-2" value="" style="rounded=0;whiteSpace=wrap;html=1;" parent="1" vertex="1">
          <mxGeometry x="-150" y="280" width="609.39" height="800" as="geometry" />
        </mxCell>
        <mxCell id="j51JJCb9MVZ1a1OPQLJk-3" value="" style="rounded=0;whiteSpace=wrap;html=1;" parent="1" vertex="1">
          <mxGeometry x="-160" y="20" width="610" height="160" as="geometry" />
        </mxCell>
        <mxCell id="j51JJCb9MVZ1a1OPQLJk-4" value="" style="outlineConnect=0;fontColor=#232F3E;gradientColor=none;fillColor=#cc0066;strokeColor=none;dashed=0;verticalLabelPosition=bottom;verticalAlign=top;align=center;html=1;fontSize=12;fontStyle=0;aspect=fixed;pointerEvents=1;shape=mxgraph.aws4.organizations_account;" parent="1" vertex="1">
          <mxGeometry x="-153" y="24" width="37.95" height="40" as="geometry" />
        </mxCell>
        <mxCell id="j51JJCb9MVZ1a1OPQLJk-5" value="Organization Management Account" style="text;html=1;align=center;verticalAlign=middle;resizable=0;points=[];autosize=1;fontSize=14;fontColor=#cc0066;fontStyle=1" parent="1" vertex="1">
          <mxGeometry x="-120.05" y="27" width="260" height="30" as="geometry" />
        </mxCell>
        <mxCell id="j51JJCb9MVZ1a1OPQLJk-6" style="edgeStyle=orthogonalEdgeStyle;rounded=0;orthogonalLoop=1;jettySize=auto;html=1;dashed=1;dashPattern=1 1;strokeWidth=3;fontSize=14;fontColor=#cc0066;" parent="1" source="j51JJCb9MVZ1a1OPQLJk-7" target="j51JJCb9MVZ1a1OPQLJk-27" edge="1">
          <mxGeometry relative="1" as="geometry" />
        </mxCell>
        <mxCell id="j51JJCb9MVZ1a1OPQLJk-7" value="CloudWatch Logs" style="outlineConnect=0;fontColor=#232F3E;gradientColor=#F34482;gradientDirection=north;fillColor=#BC1356;strokeColor=#ffffff;dashed=0;verticalLabelPosition=bottom;verticalAlign=top;align=center;html=1;fontSize=12;fontStyle=0;aspect=fixed;shape=mxgraph.aws4.resourceIcon;resIcon=mxgraph.aws4.cloudwatch;" parent="1" vertex="1">
          <mxGeometry x="9.999999999999986" y="80" width="60" height="60" as="geometry" />
        </mxCell>
        <mxCell id="j51JJCb9MVZ1a1OPQLJk-8" style="edgeStyle=orthogonalEdgeStyle;rounded=0;orthogonalLoop=1;jettySize=auto;html=1;dashed=1;dashPattern=1 1;strokeWidth=3;fontSize=14;fontColor=#cc0066;" parent="1" source="j51JJCb9MVZ1a1OPQLJk-9" target="j51JJCb9MVZ1a1OPQLJk-10" edge="1">
          <mxGeometry relative="1" as="geometry" />
        </mxCell>
        <mxCell id="j51JJCb9MVZ1a1OPQLJk-9" value="Cost &amp;amp; usage Reports" style="outlineConnect=0;fontColor=#232F3E;gradientColor=#60A337;gradientDirection=north;fillColor=#277116;strokeColor=#ffffff;dashed=0;verticalLabelPosition=bottom;verticalAlign=top;align=center;html=1;fontSize=12;fontStyle=0;aspect=fixed;shape=mxgraph.aws4.resourceIcon;resIcon=mxgraph.aws4.cost_and_usage_report;" parent="1" vertex="1">
          <mxGeometry x="190" y="80" width="60" height="60" as="geometry" />
        </mxCell>
        <mxCell id="j51JJCb9MVZ1a1OPQLJk-10" value="aws-accelerator-cur&lt;br&gt;S3 bucket" style="outlineConnect=0;fontColor=#232F3E;gradientColor=none;fillColor=#277116;strokeColor=none;dashed=0;verticalLabelPosition=bottom;verticalAlign=top;align=center;html=1;fontSize=12;fontStyle=0;aspect=fixed;pointerEvents=1;shape=mxgraph.aws4.bucket_with_objects;" parent="1" vertex="1">
          <mxGeometry x="350" y="80" width="57.69" height="60" as="geometry" />
        </mxCell>
        <mxCell id="j51JJCb9MVZ1a1OPQLJk-11" value="" style="rounded=0;whiteSpace=wrap;html=1;" parent="1" vertex="1">
          <mxGeometry x="560" y="236" width="490" height="574" as="geometry" />
        </mxCell>
        <mxCell id="j51JJCb9MVZ1a1OPQLJk-12" value="" style="outlineConnect=0;fontColor=#232F3E;gradientColor=none;fillColor=#cc0066;strokeColor=none;dashed=0;verticalLabelPosition=bottom;verticalAlign=top;align=center;html=1;fontSize=12;fontStyle=0;aspect=fixed;pointerEvents=1;shape=mxgraph.aws4.organizations_account;" parent="1" vertex="1">
          <mxGeometry x="565" y="240" width="37.95" height="40" as="geometry" />
        </mxCell>
        <mxCell id="j51JJCb9MVZ1a1OPQLJk-13" value="Log Archive Account" style="text;html=1;align=center;verticalAlign=middle;resizable=0;points=[];autosize=1;fontSize=14;fontColor=#cc0066;fontStyle=1" parent="1" vertex="1">
          <mxGeometry x="602.95" y="246" width="160" height="20" as="geometry" />
        </mxCell>
        <mxCell id="j51JJCb9MVZ1a1OPQLJk-14" value="aws-accelerator-central-logs&lt;br&gt;S3 bucket" style="outlineConnect=0;fontColor=#232F3E;gradientColor=none;fillColor=#277116;strokeColor=none;dashed=0;verticalLabelPosition=bottom;verticalAlign=top;align=center;html=1;fontSize=12;fontStyle=0;aspect=fixed;pointerEvents=1;shape=mxgraph.aws4.bucket_with_objects;" parent="1" vertex="1">
          <mxGeometry x="933" y="456" width="57.69" height="60" as="geometry" />
        </mxCell>
        <mxCell id="j51JJCb9MVZ1a1OPQLJk-15" value="&lt;span style=&quot;color: rgb(35 , 47 , 62) ; font-size: 12px&quot;&gt;Bucket replication&lt;/span&gt;" style="text;html=1;align=center;verticalAlign=middle;resizable=0;points=[];autosize=1;fontSize=14;fontColor=#cc0066;" parent="1" vertex="1">
          <mxGeometry x="565" y="80" width="110" height="20" as="geometry" />
        </mxCell>
        <mxCell id="j51JJCb9MVZ1a1OPQLJk-22" style="edgeStyle=orthogonalEdgeStyle;rounded=0;orthogonalLoop=1;jettySize=auto;html=1;fontSize=14;fontColor=#cc0066;strokeWidth=3;dashed=1;dashPattern=1 1;" parent="1" source="j51JJCb9MVZ1a1OPQLJk-10" target="j51JJCb9MVZ1a1OPQLJk-14" edge="1">
          <mxGeometry relative="1" as="geometry" />
        </mxCell>
        <mxCell id="j51JJCb9MVZ1a1OPQLJk-23" style="edgeStyle=orthogonalEdgeStyle;rounded=0;orthogonalLoop=1;jettySize=auto;html=1;strokeWidth=3;fontSize=14;fontColor=#cc0066;dashed=1;dashPattern=1 1;" parent="1" source="j51JJCb9MVZ1a1OPQLJk-24" target="j51JJCb9MVZ1a1OPQLJk-14" edge="1">
          <mxGeometry relative="1" as="geometry" />
        </mxCell>
        <mxCell id="j51JJCb9MVZ1a1OPQLJk-24" value="Kinesis Firehose" style="outlineConnect=0;fontColor=#232F3E;gradientColor=#945DF2;gradientDirection=north;fillColor=#5A30B5;strokeColor=#ffffff;dashed=0;verticalLabelPosition=bottom;verticalAlign=top;align=center;html=1;fontSize=12;fontStyle=0;aspect=fixed;shape=mxgraph.aws4.resourceIcon;resIcon=mxgraph.aws4.kinesis_data_firehose;" parent="1" vertex="1">
          <mxGeometry x="730" y="456" width="60" height="60" as="geometry" />
        </mxCell>
        <mxCell id="j51JJCb9MVZ1a1OPQLJk-25" style="edgeStyle=orthogonalEdgeStyle;rounded=0;orthogonalLoop=1;jettySize=auto;html=1;strokeWidth=3;fontSize=14;fontColor=#cc0066;dashed=1;dashPattern=1 1;" parent="1" source="j51JJCb9MVZ1a1OPQLJk-26" target="j51JJCb9MVZ1a1OPQLJk-24" edge="1">
          <mxGeometry relative="1" as="geometry" />
        </mxCell>
        <mxCell id="j51JJCb9MVZ1a1OPQLJk-26" value="Kinesis Data &lt;br&gt;Streams" style="outlineConnect=0;fontColor=#232F3E;gradientColor=#945DF2;gradientDirection=north;fillColor=#5A30B5;strokeColor=#ffffff;dashed=0;verticalLabelPosition=bottom;verticalAlign=top;align=center;html=1;fontSize=12;fontStyle=0;aspect=fixed;shape=mxgraph.aws4.resourceIcon;resIcon=mxgraph.aws4.kinesis_data_streams;" parent="1" vertex="1">
          <mxGeometry x="590" y="456" width="60" height="60" as="geometry" />
        </mxCell>
        <mxCell id="j51JJCb9MVZ1a1OPQLJk-27" value="CloudWatch&lt;br&gt;Alarms" style="outlineConnect=0;fontColor=#232F3E;gradientColor=none;fillColor=#BC1356;strokeColor=none;dashed=0;verticalLabelPosition=bottom;verticalAlign=top;align=center;html=1;fontSize=12;fontStyle=0;aspect=fixed;pointerEvents=1;shape=mxgraph.aws4.alarm;" parent="1" vertex="1">
          <mxGeometry x="-120.00000000000001" y="80" width="60" height="60" as="geometry" />
        </mxCell>
        <mxCell id="j51JJCb9MVZ1a1OPQLJk-28" value="&lt;span style=&quot;color: rgb(35 , 47 , 62) ; font-size: 12px&quot;&gt;SNS&lt;br&gt;&lt;/span&gt;" style="text;html=1;align=center;verticalAlign=middle;resizable=0;points=[];autosize=1;fontSize=14;fontColor=#cc0066;" parent="1" vertex="1">
          <mxGeometry x="-160" y="85" width="40" height="20" as="geometry" />
        </mxCell>
        <mxCell id="j51JJCb9MVZ1a1OPQLJk-29" value="" style="rounded=0;whiteSpace=wrap;html=1;" parent="1" vertex="1">
          <mxGeometry x="-160" y="270" width="609.39" height="800" as="geometry" />
        </mxCell>
        <mxCell id="j51JJCb9MVZ1a1OPQLJk-30" value="" style="outlineConnect=0;fontColor=#232F3E;gradientColor=none;fillColor=#cc0066;strokeColor=none;dashed=0;verticalLabelPosition=bottom;verticalAlign=top;align=center;html=1;fontSize=12;fontStyle=0;aspect=fixed;pointerEvents=1;shape=mxgraph.aws4.organizations_account;" parent="1" vertex="1">
          <mxGeometry x="-153" y="280" width="37.95" height="40" as="geometry" />
        </mxCell>
        <mxCell id="j51JJCb9MVZ1a1OPQLJk-31" value="Each organization account" style="text;html=1;align=center;verticalAlign=middle;resizable=0;points=[];autosize=1;fontSize=14;fontColor=#cc0066;fontStyle=1" parent="1" vertex="1">
          <mxGeometry x="-108.39" y="290" width="190" height="20" as="geometry" />
        </mxCell>
        <mxCell id="j51JJCb9MVZ1a1OPQLJk-33" style="edgeStyle=orthogonalEdgeStyle;rounded=0;orthogonalLoop=1;jettySize=auto;html=1;dashed=1;dashPattern=1 1;strokeWidth=3;fontSize=14;fontColor=#cc0066;" parent="1" edge="1">
          <mxGeometry relative="1" as="geometry">
            <mxPoint x="-130" y="108" as="sourcePoint" />
            <mxPoint x="-240.41176470588243" y="108.41176470588243" as="targetPoint" />
            <Array as="points">
              <mxPoint x="-240.61" y="108" />
            </Array>
          </mxGeometry>
        </mxCell>
        <mxCell id="j51JJCb9MVZ1a1OPQLJk-34" value="&lt;span style=&quot;color: rgb(35 , 47 , 62) ; font-size: 12px&quot;&gt;Delivery Stream&lt;/span&gt;" style="text;html=1;align=center;verticalAlign=middle;resizable=0;points=[];autosize=1;fontSize=14;fontColor=#cc0066;rotation=0;" parent="1" vertex="1">
          <mxGeometry x="295" y="194" width="100" height="20" as="geometry" />
        </mxCell>
        <mxCell id="j51JJCb9MVZ1a1OPQLJk-35" style="edgeStyle=none;rounded=0;orthogonalLoop=1;jettySize=auto;html=1;dashed=1;dashPattern=1 1;strokeWidth=3;fontSize=14;fontColor=#cc0066;" parent="1" source="j51JJCb9MVZ1a1OPQLJk-36" target="j51JJCb9MVZ1a1OPQLJk-26" edge="1">
          <mxGeometry relative="1" as="geometry" />
        </mxCell>
        <mxCell id="j51JJCb9MVZ1a1OPQLJk-36" value="CloudWatch Logs" style="outlineConnect=0;fontColor=#232F3E;gradientColor=#F34482;gradientDirection=north;fillColor=#BC1356;strokeColor=#ffffff;dashed=0;verticalLabelPosition=bottom;verticalAlign=top;align=center;html=1;fontSize=12;fontStyle=0;aspect=fixed;shape=mxgraph.aws4.resourceIcon;resIcon=mxgraph.aws4.cloudwatch;" parent="1" vertex="1">
          <mxGeometry x="250" y="456" width="60" height="60" as="geometry" />
        </mxCell>
        <mxCell id="j51JJCb9MVZ1a1OPQLJk-37" value="&lt;span style=&quot;color: rgb(35 , 47 , 62) ; font-size: 12px&quot;&gt;Delivery Stream&lt;/span&gt;" style="text;html=1;align=center;verticalAlign=middle;resizable=0;points=[];autosize=1;fontSize=14;fontColor=#cc0066;rotation=0;" parent="1" vertex="1">
          <mxGeometry x="340" y="454" width="100" height="20" as="geometry" />
        </mxCell>
        <mxCell id="j51JJCb9MVZ1a1OPQLJk-109" style="edgeStyle=orthogonalEdgeStyle;rounded=0;orthogonalLoop=1;jettySize=auto;html=1;dashed=1;dashPattern=1 1;strokeWidth=3;endArrow=none;endFill=0;" parent="1" source="j51JJCb9MVZ1a1OPQLJk-40" edge="1">
          <mxGeometry relative="1" as="geometry">
            <mxPoint x="960" y="608" as="targetPoint" />
          </mxGeometry>
        </mxCell>
        <mxCell id="j51JJCb9MVZ1a1OPQLJk-127" value="" style="edgeStyle=orthogonalEdgeStyle;rounded=0;orthogonalLoop=1;jettySize=auto;html=1;dashed=1;dashPattern=1 1;strokeWidth=3;endArrow=classic;endFill=1;" parent="1" source="j51JJCb9MVZ1a1OPQLJk-40" edge="1">
          <mxGeometry relative="1" as="geometry">
            <mxPoint x="280" y="540" as="targetPoint" />
          </mxGeometry>
        </mxCell>
        <mxCell id="j51JJCb9MVZ1a1OPQLJk-40" value="VPC FlowLogs" style="outlineConnect=0;fontColor=#232F3E;gradientColor=none;fillColor=#5A30B5;strokeColor=none;dashed=0;verticalLabelPosition=bottom;verticalAlign=top;align=center;html=1;fontSize=12;fontStyle=0;aspect=fixed;pointerEvents=1;shape=mxgraph.aws4.flow_logs;" parent="1" vertex="1">
          <mxGeometry x="250" y="578" width="60" height="60" as="geometry" />
        </mxCell>
        <mxCell id="j51JJCb9MVZ1a1OPQLJk-41" style="edgeStyle=orthogonalEdgeStyle;rounded=0;orthogonalLoop=1;jettySize=auto;html=1;dashed=1;dashPattern=1 1;strokeWidth=3;fontSize=14;fontColor=#cc0066;" parent="1" source="j51JJCb9MVZ1a1OPQLJk-43" target="j51JJCb9MVZ1a1OPQLJk-44" edge="1">
          <mxGeometry relative="1" as="geometry" />
        </mxCell>
        <mxCell id="j51JJCb9MVZ1a1OPQLJk-42" style="edgeStyle=orthogonalEdgeStyle;rounded=0;orthogonalLoop=1;jettySize=auto;html=1;dashed=1;dashPattern=1 1;strokeWidth=3;fontSize=14;fontColor=#cc0066;endArrow=classic;endFill=1;" parent="1" edge="1">
          <mxGeometry relative="1" as="geometry">
            <mxPoint x="300" y="850" as="sourcePoint" />
            <mxPoint x="960" y="550" as="targetPoint" />
            <Array as="points">
              <mxPoint x="960" y="850" />
            </Array>
          </mxGeometry>
        </mxCell>
        <mxCell id="j51JJCb9MVZ1a1OPQLJk-43" value="ELB" style="outlineConnect=0;fontColor=#232F3E;gradientColor=#945DF2;gradientDirection=north;fillColor=#5A30B5;strokeColor=#ffffff;dashed=0;verticalLabelPosition=bottom;verticalAlign=top;align=center;html=1;fontSize=12;fontStyle=0;aspect=fixed;shape=mxgraph.aws4.resourceIcon;resIcon=mxgraph.aws4.elastic_load_balancing;" parent="1" vertex="1">
          <mxGeometry x="250" y="691.35" width="60" height="60" as="geometry" />
        </mxCell>
        <mxCell id="j51JJCb9MVZ1a1OPQLJk-44" value="aws-accelerator-elb-access-logs&lt;br&gt;S3 bucket" style="outlineConnect=0;fontColor=#232F3E;gradientColor=none;fillColor=#277116;strokeColor=none;dashed=0;verticalLabelPosition=bottom;verticalAlign=top;align=center;html=1;fontSize=12;fontStyle=0;aspect=fixed;pointerEvents=1;shape=mxgraph.aws4.bucket_with_objects;" parent="1" vertex="1">
          <mxGeometry x="680" y="690" width="57.69" height="60" as="geometry" />
        </mxCell>
        <mxCell id="j51JJCb9MVZ1a1OPQLJk-45" value="" style="group" parent="1" vertex="1" connectable="0">
          <mxGeometry x="720" y="640" width="71.79000000000002" height="49" as="geometry" />
        </mxCell>
        <mxCell id="j51JJCb9MVZ1a1OPQLJk-112" value="" style="group" parent="j51JJCb9MVZ1a1OPQLJk-45" vertex="1" connectable="0">
          <mxGeometry x="-7.2099999999999795" y="9" width="40" height="40" as="geometry" />
        </mxCell>
        <mxCell id="j51JJCb9MVZ1a1OPQLJk-47" value="&lt;span style=&quot;color: rgb(35 , 47 , 62) ; font-size: 12px&quot;&gt;SSE&lt;br&gt;&lt;/span&gt;" style="text;html=1;align=center;verticalAlign=middle;resizable=0;points=[];autosize=1;fontSize=14;fontColor=#cc0066;" parent="j51JJCb9MVZ1a1OPQLJk-112" vertex="1">
          <mxGeometry width="40" height="20" as="geometry" />
        </mxCell>
        <mxCell id="j51JJCb9MVZ1a1OPQLJk-111" value="" style="sketch=0;outlineConnect=0;fontColor=#232F3E;gradientColor=none;fillColor=#BF0816;strokeColor=none;dashed=0;verticalLabelPosition=bottom;verticalAlign=top;align=center;html=1;fontSize=12;fontStyle=0;aspect=fixed;pointerEvents=1;shape=mxgraph.aws4.addon;" parent="j51JJCb9MVZ1a1OPQLJk-112" vertex="1">
          <mxGeometry x="5.684341886080802e-14" y="20" width="39" height="20" as="geometry" />
        </mxCell>
        <mxCell id="j51JJCb9MVZ1a1OPQLJk-48" value="&lt;font color=&quot;#232f3e&quot;&gt;&lt;span style=&quot;font-size: 12px&quot;&gt;S3 Destination&lt;/span&gt;&lt;/font&gt;" style="text;html=1;align=center;verticalAlign=middle;resizable=0;points=[];autosize=1;fontSize=14;fontColor=#cc0066;" parent="1" vertex="1">
          <mxGeometry x="333.85" y="692" width="90" height="20" as="geometry" />
        </mxCell>
        <mxCell id="j51JJCb9MVZ1a1OPQLJk-49" value="&lt;font color=&quot;#232f3e&quot;&gt;&lt;span style=&quot;font-size: 12px&quot;&gt;S3 Destination&lt;/span&gt;&lt;/font&gt;" style="text;html=1;align=center;verticalAlign=middle;resizable=0;points=[];autosize=1;fontSize=14;fontColor=#cc0066;" parent="1" vertex="1">
          <mxGeometry x="340" y="581" width="90" height="20" as="geometry" />
        </mxCell>
        <mxCell id="j51JJCb9MVZ1a1OPQLJk-50" style="rounded=0;orthogonalLoop=1;jettySize=auto;html=1;dashed=1;dashPattern=1 1;strokeWidth=3;fontSize=14;fontColor=#cc0066;exitX=1.003;exitY=0.577;exitDx=0;exitDy=0;exitPerimeter=0;entryX=0.673;entryY=0.338;entryDx=0;entryDy=0;entryPerimeter=0;" parent="1" source="j51JJCb9MVZ1a1OPQLJk-52" target="j51JJCb9MVZ1a1OPQLJk-29" edge="1">
          <mxGeometry relative="1" as="geometry">
            <mxPoint x="251" y="527.9999999999998" as="targetPoint" />
          </mxGeometry>
        </mxCell>
        <mxCell id="j51JJCb9MVZ1a1OPQLJk-51" style="edgeStyle=none;rounded=0;orthogonalLoop=1;jettySize=auto;html=1;dashed=1;dashPattern=1 1;endArrow=none;endFill=0;strokeWidth=3;fontSize=14;fontColor=#cc0066;" parent="1" edge="1">
          <mxGeometry relative="1" as="geometry">
            <mxPoint x="300" y="848" as="targetPoint" />
            <mxPoint x="145" y="677.9999999999998" as="sourcePoint" />
          </mxGeometry>
        </mxCell>
        <mxCell id="j51JJCb9MVZ1a1OPQLJk-52" value="Systems Manager&lt;br&gt;Sessions Manager" style="outlineConnect=0;fontColor=#232F3E;gradientColor=#F34482;gradientDirection=north;fillColor=#BC1356;strokeColor=#ffffff;dashed=0;verticalLabelPosition=bottom;verticalAlign=top;align=center;html=1;fontSize=12;fontStyle=0;aspect=fixed;shape=mxgraph.aws4.resourceIcon;resIcon=mxgraph.aws4.systems_manager;" parent="1" vertex="1">
          <mxGeometry x="114.69" y="582" width="60" height="60" as="geometry" />
        </mxCell>
        <mxCell id="j51JJCb9MVZ1a1OPQLJk-53" value="&lt;font color=&quot;#232f3e&quot;&gt;&lt;span style=&quot;font-size: 12px&quot;&gt;S3 Destination&lt;/span&gt;&lt;/font&gt;" style="text;html=1;align=center;verticalAlign=middle;resizable=0;points=[];autosize=1;fontSize=14;fontColor=#cc0066;" parent="1" vertex="1">
          <mxGeometry x="333.85" y="818" width="90" height="20" as="geometry" />
        </mxCell>
        <mxCell id="j51JJCb9MVZ1a1OPQLJk-56" style="edgeStyle=none;rounded=0;orthogonalLoop=1;jettySize=auto;html=1;dashed=1;dashPattern=1 1;endArrow=none;endFill=0;strokeWidth=3;fontSize=14;fontColor=#cc0066;" parent="1" source="j51JJCb9MVZ1a1OPQLJk-59" edge="1">
          <mxGeometry relative="1" as="geometry">
            <mxPoint x="300" y="848" as="targetPoint" />
          </mxGeometry>
        </mxCell>
        <mxCell id="j51JJCb9MVZ1a1OPQLJk-99" style="edgeStyle=none;rounded=0;orthogonalLoop=1;jettySize=auto;html=1;dashed=1;dashPattern=1 1;strokeWidth=3;endArrow=classic;endFill=1;" parent="1" source="j51JJCb9MVZ1a1OPQLJk-58" target="j51JJCb9MVZ1a1OPQLJk-95" edge="1">
          <mxGeometry relative="1" as="geometry" />
        </mxCell>
        <mxCell id="j51JJCb9MVZ1a1OPQLJk-58" value="CloudTrail" style="outlineConnect=0;fontColor=#232F3E;gradientColor=#F34482;gradientDirection=north;fillColor=#BC1356;strokeColor=#ffffff;dashed=0;verticalLabelPosition=bottom;verticalAlign=top;align=center;html=1;fontSize=12;fontStyle=0;aspect=fixed;shape=mxgraph.aws4.resourceIcon;resIcon=mxgraph.aws4.cloudtrail;dashPattern=1 1;" parent="1" vertex="1">
          <mxGeometry x="240" y="307.5" width="55" height="55" as="geometry" />
        </mxCell>
        <mxCell id="j51JJCb9MVZ1a1OPQLJk-59" value="" style="rounded=0;whiteSpace=wrap;html=1;fontSize=14;dashed=1;dashPattern=1 1;" parent="1" vertex="1">
          <mxGeometry x="-10" y="806" width="155.05" height="102" as="geometry" />
        </mxCell>
        <mxCell id="j51JJCb9MVZ1a1OPQLJk-60" value="Macie" style="outlineConnect=0;fontColor=#232F3E;gradientColor=#F54749;gradientDirection=north;fillColor=#C7131F;strokeColor=#ffffff;dashed=0;verticalLabelPosition=bottom;verticalAlign=top;align=center;html=1;fontSize=12;fontStyle=0;aspect=fixed;shape=mxgraph.aws4.resourceIcon;resIcon=mxgraph.aws4.macie;" parent="1" vertex="1">
          <mxGeometry x="75.04999999999998" y="816" width="58" height="58" as="geometry" />
        </mxCell>
        <mxCell id="j51JJCb9MVZ1a1OPQLJk-61" value="GuardDuty" style="outlineConnect=0;fontColor=#232F3E;gradientColor=#F54749;gradientDirection=north;fillColor=#C7131F;strokeColor=#ffffff;dashed=0;verticalLabelPosition=bottom;verticalAlign=top;align=center;html=1;fontSize=12;fontStyle=0;aspect=fixed;shape=mxgraph.aws4.resourceIcon;resIcon=mxgraph.aws4.guardduty;" parent="1" vertex="1">
          <mxGeometry x="-1.3399999999999874" y="816" width="58" height="58" as="geometry" />
        </mxCell>
        <mxCell id="j51JJCb9MVZ1a1OPQLJk-76" style="edgeStyle=none;rounded=0;orthogonalLoop=1;jettySize=auto;html=1;dashed=1;dashPattern=1 1;strokeWidth=3;" parent="1" source="j51JJCb9MVZ1a1OPQLJk-67" target="j51JJCb9MVZ1a1OPQLJk-36" edge="1">
          <mxGeometry relative="1" as="geometry" />
        </mxCell>
        <mxCell id="j51JJCb9MVZ1a1OPQLJk-67" value="EventBridge" style="sketch=0;points=[[0,0,0],[0.25,0,0],[0.5,0,0],[0.75,0,0],[1,0,0],[0,1,0],[0.25,1,0],[0.5,1,0],[0.75,1,0],[1,1,0],[0,0.25,0],[0,0.5,0],[0,0.75,0],[1,0.25,0],[1,0.5,0],[1,0.75,0]];outlineConnect=0;fontColor=#232F3E;gradientColor=#FF4F8B;gradientDirection=north;fillColor=#BC1356;strokeColor=#ffffff;dashed=0;verticalLabelPosition=bottom;verticalAlign=top;align=center;html=1;fontSize=12;fontStyle=0;aspect=fixed;shape=mxgraph.aws4.resourceIcon;resIcon=mxgraph.aws4.eventbridge;" parent="1" vertex="1">
          <mxGeometry x="-20" y="444" width="58" height="58" as="geometry" />
        </mxCell>
        <mxCell id="j51JJCb9MVZ1a1OPQLJk-68" value="Security Hub" style="sketch=0;points=[[0,0,0],[0.25,0,0],[0.5,0,0],[0.75,0,0],[1,0,0],[0,1,0],[0.25,1,0],[0.5,1,0],[0.75,1,0],[1,1,0],[0,0.25,0],[0,0.5,0],[0,0.75,0],[1,0.25,0],[1,0.5,0],[1,0.75,0]];outlineConnect=0;fontColor=#232F3E;gradientColor=#F54749;gradientDirection=north;fillColor=#C7131F;strokeColor=#ffffff;dashed=0;verticalLabelPosition=bottom;verticalAlign=top;align=center;html=1;fontSize=12;fontStyle=0;aspect=fixed;shape=mxgraph.aws4.resourceIcon;resIcon=mxgraph.aws4.security_hub;" parent="1" vertex="1">
          <mxGeometry x="-20" y="578" width="58" height="58" as="geometry" />
        </mxCell>
        <mxCell id="j51JJCb9MVZ1a1OPQLJk-73" value="" style="rounded=0;whiteSpace=wrap;html=1;fontSize=14;dashed=1;dashPattern=1 1;" parent="1" vertex="1">
          <mxGeometry x="-150" y="738" width="110" height="310" as="geometry" />
        </mxCell>
        <mxCell id="j51JJCb9MVZ1a1OPQLJk-62" value="Firewall&lt;br&gt;Manager" style="outlineConnect=0;fontColor=#232F3E;gradientColor=#F54749;gradientDirection=north;fillColor=#C7131F;strokeColor=#ffffff;dashed=0;verticalLabelPosition=bottom;verticalAlign=top;align=center;html=1;fontSize=12;fontStyle=0;aspect=fixed;shape=mxgraph.aws4.resourceIcon;resIcon=mxgraph.aws4.firewall_manager;dashPattern=1 1;" parent="1" vertex="1">
          <mxGeometry x="-124" y="750" width="58" height="58" as="geometry" />
        </mxCell>
        <mxCell id="j51JJCb9MVZ1a1OPQLJk-66" value="Access&lt;br&gt;Analyzer" style="sketch=0;outlineConnect=0;fontColor=#232F3E;gradientColor=none;fillColor=#BF0816;strokeColor=none;dashed=0;verticalLabelPosition=bottom;verticalAlign=top;align=center;html=1;fontSize=12;fontStyle=0;aspect=fixed;pointerEvents=1;shape=mxgraph.aws4.access_analyzer;" parent="1" vertex="1">
          <mxGeometry x="-126.91" y="848" width="63.82" height="63" as="geometry" />
        </mxCell>
        <mxCell id="j51JJCb9MVZ1a1OPQLJk-69" value="3rd party apps" style="sketch=0;points=[[0,0,0],[0.25,0,0],[0.5,0,0],[0.75,0,0],[1,0,0],[0,1,0],[0.25,1,0],[0.5,1,0],[0.75,1,0],[1,1,0],[0,0.25,0],[0,0.5,0],[0,0.75,0],[1,0.25,0],[1,0.5,0],[1,0.75,0]];gradientDirection=north;outlineConnect=0;fontColor=#232F3E;gradientColor=#505863;fillColor=#1E262E;strokeColor=#ffffff;dashed=0;verticalLabelPosition=bottom;verticalAlign=top;align=center;html=1;fontSize=12;fontStyle=0;aspect=fixed;shape=mxgraph.aws4.resourceIcon;resIcon=mxgraph.aws4.marketplace;" parent="1" vertex="1">
          <mxGeometry x="-122.50000000000001" y="958" width="60" height="60" as="geometry" />
        </mxCell>
        <mxCell id="j51JJCb9MVZ1a1OPQLJk-75" value="" style="rounded=0;whiteSpace=wrap;html=1;fontSize=14;dashed=1;dashPattern=1 1;" parent="1" vertex="1">
          <mxGeometry x="178.8" y="920" width="155.05" height="111" as="geometry" />
        </mxCell>
        <mxCell id="j51JJCb9MVZ1a1OPQLJk-55" value="Config" style="outlineConnect=0;fontColor=#232F3E;gradientColor=#F34482;gradientDirection=north;fillColor=#BC1356;strokeColor=#ffffff;dashed=0;verticalLabelPosition=bottom;verticalAlign=top;align=center;html=1;fontSize=12;fontStyle=0;aspect=fixed;shape=mxgraph.aws4.resourceIcon;resIcon=mxgraph.aws4.config;dashPattern=1 1;" parent="1" vertex="1">
          <mxGeometry x="264.11" y="929" width="60" height="60" as="geometry" />
        </mxCell>
        <mxCell id="j51JJCb9MVZ1a1OPQLJk-72" style="rounded=0;orthogonalLoop=1;jettySize=auto;html=1;dashed=1;dashPattern=1 1;endArrow=none;endFill=0;strokeWidth=3;fontSize=14;fontColor=#cc0066;exitX=0.5;exitY=0;exitDx=0;exitDy=0;" parent="1" source="j51JJCb9MVZ1a1OPQLJk-75" edge="1">
          <mxGeometry relative="1" as="geometry">
            <mxPoint x="210" y="927.9999999999998" as="sourcePoint" />
            <mxPoint x="300" y="848" as="targetPoint" />
          </mxGeometry>
        </mxCell>
        <mxCell id="j51JJCb9MVZ1a1OPQLJk-64" value="Audit &lt;br&gt;Manager" style="sketch=0;points=[[0,0,0],[0.25,0,0],[0.5,0,0],[0.75,0,0],[1,0,0],[0,1,0],[0.25,1,0],[0.5,1,0],[0.75,1,0],[1,1,0],[0,0.25,0],[0,0.5,0],[0,0.75,0],[1,0.25,0],[1,0.5,0],[1,0.75,0]];outlineConnect=0;fontColor=#232F3E;gradientColor=#F54749;gradientDirection=north;fillColor=#C7131F;strokeColor=#ffffff;dashed=0;verticalLabelPosition=bottom;verticalAlign=top;align=center;html=1;fontSize=12;fontStyle=0;aspect=fixed;shape=mxgraph.aws4.resourceIcon;resIcon=mxgraph.aws4.audit_manager;" parent="1" vertex="1">
          <mxGeometry x="189.81" y="930" width="58" height="58" as="geometry" />
        </mxCell>
        <mxCell id="j51JJCb9MVZ1a1OPQLJk-79" style="edgeStyle=none;rounded=0;orthogonalLoop=1;jettySize=auto;html=1;dashed=1;dashPattern=1 1;strokeWidth=3;" parent="1" source="j51JJCb9MVZ1a1OPQLJk-78" target="j51JJCb9MVZ1a1OPQLJk-36" edge="1">
          <mxGeometry relative="1" as="geometry" />
        </mxCell>
        <mxCell id="j51JJCb9MVZ1a1OPQLJk-78" value="Other log&lt;br&gt;sources" style="sketch=0;pointerEvents=1;shadow=0;dashed=0;html=1;strokeColor=#666666;fillColor=#666666;labelPosition=center;verticalLabelPosition=bottom;verticalAlign=top;outlineConnect=0;align=center;shape=mxgraph.office.concepts.app_part;" parent="1" vertex="1">
          <mxGeometry x="99.05" y="321" width="46" height="45" as="geometry" />
        </mxCell>
        <mxCell id="j51JJCb9MVZ1a1OPQLJk-94" style="rounded=0;orthogonalLoop=1;jettySize=auto;html=1;dashed=1;dashPattern=1 1;strokeWidth=3;" parent="1" source="j51JJCb9MVZ1a1OPQLJk-58" edge="1">
          <mxGeometry relative="1" as="geometry">
            <mxPoint x="-83.0967741935483" y="469.9999999999998" as="sourcePoint" />
            <mxPoint x="40" y="170" as="targetPoint" />
          </mxGeometry>
        </mxCell>
        <mxCell id="j51JJCb9MVZ1a1OPQLJk-125" style="edgeStyle=orthogonalEdgeStyle;rounded=0;orthogonalLoop=1;jettySize=auto;html=1;dashed=1;dashPattern=1 1;strokeWidth=3;endArrow=none;endFill=0;" parent="1" source="j51JJCb9MVZ1a1OPQLJk-95" target="j51JJCb9MVZ1a1OPQLJk-122" edge="1">
          <mxGeometry relative="1" as="geometry" />
        </mxCell>
        <mxCell id="j51JJCb9MVZ1a1OPQLJk-95" value="aws-controltower-logs&lt;br&gt;S3 bucket" style="outlineConnect=0;fontColor=#232F3E;gradientColor=none;fillColor=#277116;strokeColor=none;dashed=0;verticalLabelPosition=bottom;verticalAlign=top;align=center;html=1;fontSize=12;fontStyle=0;aspect=fixed;pointerEvents=1;shape=mxgraph.aws4.bucket_with_objects;" parent="1" vertex="1">
          <mxGeometry x="627.05" y="305" width="57.69" height="60" as="geometry" />
        </mxCell>
        <mxCell id="j51JJCb9MVZ1a1OPQLJk-101" style="rounded=0;orthogonalLoop=1;jettySize=auto;html=1;dashed=1;dashPattern=1 1;strokeWidth=3;fontSize=14;fontColor=#cc0066;edgeStyle=orthogonalEdgeStyle;" parent="1" source="j51JJCb9MVZ1a1OPQLJk-7" target="j51JJCb9MVZ1a1OPQLJk-26" edge="1">
          <mxGeometry relative="1" as="geometry">
            <mxPoint x="40" y="170" as="sourcePoint" />
            <Array as="points">
              <mxPoint x="130" y="110" />
              <mxPoint x="130" y="220" />
              <mxPoint x="520" y="220" />
              <mxPoint x="520" y="470" />
            </Array>
          </mxGeometry>
        </mxCell>
        <mxCell id="j51JJCb9MVZ1a1OPQLJk-103" style="edgeStyle=none;rounded=0;orthogonalLoop=1;jettySize=auto;html=1;dashed=1;dashPattern=1 1;strokeWidth=3;" parent="1" source="j51JJCb9MVZ1a1OPQLJk-68" edge="1">
          <mxGeometry relative="1" as="geometry">
            <mxPoint x="8.945399981074843" y="578" as="sourcePoint" />
            <mxPoint x="9" y="530" as="targetPoint" />
          </mxGeometry>
        </mxCell>
        <mxCell id="j51JJCb9MVZ1a1OPQLJk-104" style="edgeStyle=none;rounded=0;orthogonalLoop=1;jettySize=auto;html=1;dashed=1;dashPattern=1 1;strokeWidth=3;" parent="1" source="j51JJCb9MVZ1a1OPQLJk-73" edge="1">
          <mxGeometry relative="1" as="geometry">
            <mxPoint x="-47.127743707259924" y="738" as="sourcePoint" />
            <mxPoint x="-20" y="660" as="targetPoint" />
          </mxGeometry>
        </mxCell>
        <mxCell id="j51JJCb9MVZ1a1OPQLJk-105" style="edgeStyle=none;rounded=0;orthogonalLoop=1;jettySize=auto;html=1;dashed=1;dashPattern=1 1;strokeWidth=3;exitX=0.5;exitY=0;exitDx=0;exitDy=0;" parent="1" source="j51JJCb9MVZ1a1OPQLJk-59" edge="1">
          <mxGeometry relative="1" as="geometry">
            <mxPoint x="67.52500000000009" y="806" as="sourcePoint" />
            <mxPoint x="30" y="660" as="targetPoint" />
          </mxGeometry>
        </mxCell>
        <mxCell id="j51JJCb9MVZ1a1OPQLJk-114" value="&lt;span style=&quot;color: rgb(35 , 47 , 62) ; font-size: 12px&quot;&gt;KMS&lt;br&gt;&lt;/span&gt;" style="text;html=1;align=center;verticalAlign=middle;resizable=0;points=[];autosize=1;fontSize=14;fontColor=#cc0066;" parent="1" vertex="1">
          <mxGeometry x="967" y="407" width="50" height="30" as="geometry" />
        </mxCell>
        <mxCell id="j51JJCb9MVZ1a1OPQLJk-115" value="" style="sketch=0;outlineConnect=0;fontColor=#232F3E;gradientColor=none;fillColor=#BF0816;strokeColor=none;dashed=0;verticalLabelPosition=bottom;verticalAlign=top;align=center;html=1;fontSize=12;fontStyle=0;aspect=fixed;pointerEvents=1;shape=mxgraph.aws4.addon;" parent="1" vertex="1">
          <mxGeometry x="972" y="432" width="39" height="20" as="geometry" />
        </mxCell>
        <mxCell id="j51JJCb9MVZ1a1OPQLJk-118" value="&lt;span style=&quot;color: rgb(35 , 47 , 62) ; font-size: 12px&quot;&gt;KMS&lt;br&gt;&lt;/span&gt;" style="text;html=1;align=center;verticalAlign=middle;resizable=0;points=[];autosize=1;fontSize=14;fontColor=#cc0066;" parent="1" vertex="1">
          <mxGeometry x="389" y="32" width="50" height="30" as="geometry" />
        </mxCell>
        <mxCell id="j51JJCb9MVZ1a1OPQLJk-119" value="" style="sketch=0;outlineConnect=0;fontColor=#232F3E;gradientColor=none;fillColor=#BF0816;strokeColor=none;dashed=0;verticalLabelPosition=bottom;verticalAlign=top;align=center;html=1;fontSize=12;fontStyle=0;aspect=fixed;pointerEvents=1;shape=mxgraph.aws4.addon;" parent="1" vertex="1">
          <mxGeometry x="394" y="57" width="39" height="20" as="geometry" />
        </mxCell>
        <mxCell id="j51JJCb9MVZ1a1OPQLJk-120" value="&lt;span style=&quot;color: rgb(35 , 47 , 62) ; font-size: 12px&quot;&gt;KMS/SSE&lt;br&gt;&lt;/span&gt;" style="text;html=1;align=center;verticalAlign=middle;resizable=0;points=[];autosize=1;fontSize=14;fontColor=#cc0066;" parent="1" vertex="1">
          <mxGeometry x="660" y="266" width="80" height="30" as="geometry" />
        </mxCell>
        <mxCell id="j51JJCb9MVZ1a1OPQLJk-121" value="" style="sketch=0;outlineConnect=0;fontColor=#232F3E;gradientColor=none;fillColor=#BF0816;strokeColor=none;dashed=0;verticalLabelPosition=bottom;verticalAlign=top;align=center;html=1;fontSize=12;fontStyle=0;aspect=fixed;pointerEvents=1;shape=mxgraph.aws4.addon;" parent="1" vertex="1">
          <mxGeometry x="680" y="291" width="39" height="20" as="geometry" />
        </mxCell>
        <mxCell id="j51JJCb9MVZ1a1OPQLJk-122" value="aws-controltower-s3-acccess-logs&lt;br&gt;S3 bucket" style="outlineConnect=0;fontColor=#232F3E;gradientColor=none;fillColor=#277116;strokeColor=none;dashed=0;verticalLabelPosition=bottom;verticalAlign=top;align=center;html=1;fontSize=12;fontStyle=0;aspect=fixed;pointerEvents=1;shape=mxgraph.aws4.bucket_with_objects;" parent="1" vertex="1">
          <mxGeometry x="820.05" y="306" width="57.69" height="60" as="geometry" />
        </mxCell>
        <mxCell id="j51JJCb9MVZ1a1OPQLJk-123" value="&lt;span style=&quot;color: rgb(35 , 47 , 62) ; font-size: 12px&quot;&gt;KMS/SSE&lt;br&gt;&lt;/span&gt;" style="text;html=1;align=center;verticalAlign=middle;resizable=0;points=[];autosize=1;fontSize=14;fontColor=#cc0066;" parent="1" vertex="1">
          <mxGeometry x="853" y="267" width="80" height="30" as="geometry" />
        </mxCell>
        <mxCell id="j51JJCb9MVZ1a1OPQLJk-124" value="" style="sketch=0;outlineConnect=0;fontColor=#232F3E;gradientColor=none;fillColor=#BF0816;strokeColor=none;dashed=0;verticalLabelPosition=bottom;verticalAlign=top;align=center;html=1;fontSize=12;fontStyle=0;aspect=fixed;pointerEvents=1;shape=mxgraph.aws4.addon;" parent="1" vertex="1">
          <mxGeometry x="873" y="292" width="39" height="20" as="geometry" />
        </mxCell>
        <mxCell id="j51JJCb9MVZ1a1OPQLJk-126" value="&lt;span style=&quot;color: rgb(35, 47, 62);&quot;&gt;Access Logs&lt;br&gt;&lt;/span&gt;" style="text;html=1;align=center;verticalAlign=middle;resizable=0;points=[];autosize=1;strokeColor=none;fillColor=none;" parent="1" vertex="1">
          <mxGeometry x="704" y="335" width="90" height="30" as="geometry" />
        </mxCell>
      </root>
    </mxGraphModel>
  </diagram>
  <diagram id="5DwVXvsMdijC08CMmLYu" name="Page-3">
    <mxGraphModel dx="1194" dy="680" grid="1" gridSize="10" guides="1" tooltips="1" connect="1" arrows="1" fold="1" page="1" pageScale="1" pageWidth="850" pageHeight="1100" math="0" shadow="0">
      <root>
        <mxCell id="0" />
        <mxCell id="1" parent="0" />
      </root>
    </mxGraphModel>
  </diagram>
</mxfile>
